<svg width="120" height="120" viewBox="0 0 120 120" fill="none" xmlns="http://www.w3.org/2000/svg">
<rect width="120" height="120" fill="#F2F2F2"/>
<rect width="375" height="3575" transform="translate(-128 -3132)" fill="white"/>
<rect x="-128" y="60" width="375" height="383" fill="#EEEFF4"/>
<rect width="120" height="120" fill="#1B1D23"/>
<path fill-rule="evenodd" clip-rule="evenodd" d="M39.8903 68.9116L38.5271 72.6847H32L41.2536 49.9639H46.8718L56.1254 72.6847H49.5983L48.235 68.9116H39.8903ZM44.0627 58.1984L41.9558 63.5963H46.1695L44.0627 58.1984Z" fill="white"/>
<path d="M59.3199 72.6844V65.7717C59.3199 65.3036 59.4531 64.8675 59.7193 64.4636C59.9855 64.0597 60.3366 63.7315 60.7727 63.479C61.2088 63.2266 61.6701 63.1003 62.1566 63.1003C62.5422 63.1003 62.9668 63.1784 63.4303 63.3344C63.8939 63.4905 64.2956 63.697 64.6352 63.9541L67.0312 59.1345C66.6365 58.8408 66.1362 58.6021 65.5303 58.4185C64.9244 58.2349 64.3507 58.1431 63.809 58.1431C62.9736 58.1431 62.1635 58.3565 61.3786 58.7834C60.5937 59.2103 59.9075 59.8047 59.3199 60.5666V58.5837H53.5916V72.6844H59.3199Z" fill="white"/>
<path d="M70.7769 73.125C71.6857 73.125 72.551 72.9988 73.3726 72.7463C74.1942 72.4939 74.8437 72.1978 75.3211 71.8582L73.4483 68.0025C73.2739 68.1219 73.0329 68.2297 72.7254 68.3261C72.4178 68.4225 72.0805 68.4707 71.7133 68.4707C71.1166 68.4707 70.5979 68.3399 70.1572 68.0783C69.7166 67.8166 69.3792 67.4701 69.1451 67.0386C68.911 66.6071 68.794 66.139 68.794 65.634C68.794 65.2301 68.8927 64.8078 69.09 64.3672C69.2874 63.9265 69.5995 63.5547 70.0264 63.2518C70.4533 62.9489 71.0064 62.7974 71.6857 62.7974C72.4018 62.7974 72.9893 62.9534 73.4483 63.2656L75.3211 59.4099C74.862 59.0611 74.2103 58.7627 73.3657 58.5149C72.5211 58.267 71.649 58.1431 70.7494 58.1431C69.6018 58.1431 68.5392 58.3519 67.5616 58.7696C66.5839 59.1873 65.7347 59.7519 65.0141 60.4633C64.2934 61.1748 63.7334 61.9781 63.3341 62.8731C62.9348 63.7682 62.7351 64.6931 62.7351 65.6478C62.7351 66.6668 62.9485 67.6284 63.3754 68.5327C63.8023 69.4369 64.3875 70.2333 65.1311 70.9218C65.8747 71.6103 66.7308 72.1496 67.6993 72.5398C68.6678 72.9299 69.6936 73.125 70.7769 73.125Z" fill="white"/>
<path d="M79.6449 72.6847V64.9183C79.6449 64.441 79.7413 64.0279 79.9341 63.679C80.1269 63.3302 80.3977 63.0594 80.7465 62.8666C81.0954 62.6738 81.4993 62.5774 81.9583 62.5774C82.656 62.5774 83.216 62.7908 83.6383 63.2177C84.0605 63.6446 84.2717 64.2115 84.2717 64.9183V72.6847H90.0001V63.679C90.0001 62.6233 89.7522 61.68 89.2565 60.8492C88.7608 60.0184 88.0883 59.3598 87.2392 58.8732C86.39 58.3867 85.4284 58.1434 84.3543 58.1434C83.5097 58.1434 82.6766 58.2972 81.855 58.6047C81.0334 58.9122 80.2967 59.346 79.6449 59.906V49H73.9165V72.6847H79.6449Z" fill="white"/>
</svg>
