<?xml version="1.0" encoding="utf-8"?>
<!-- License: Apache. Made by Iconscout: https://github.com/Iconscout/unicons -->
<svg fill="white" width="40px" height="40px" viewBox="0 0 1.2 1.2" xmlns="http://www.w3.org/2000/svg" data-name="Layer 1"><path d="M1.024 0.1H0.176a0.072 0.072 0 0 0 -0.073 0.071v0.857A0.072 0.072 0 0 0 0.176 1.1h0.847a0.072 0.072 0 0 0 0.073 -0.071V0.172A0.072 0.072 0 0 0 1.024 0.1ZM0.405 0.937h-0.15v-0.45h0.15ZM0.33 0.424a0.078 0.078 0 1 1 0 -0.156 0.079 0.079 0 1 1 0 0.156Zm0.616 0.513h-0.15v-0.242c0 -0.06 -0.022 -0.1 -0.076 -0.1A0.083 0.083 0 0 0 0.643 0.65a0.1 0.1 0 0 0 -0.005 0.036v0.25h-0.15v-0.45h0.15V0.55a0.15 0.15 0 0 1 0.136 -0.075c0.1 0 0.173 0.065 0.173 0.203Z"/></svg>