<?xml version="1.0" encoding="utf-8"?>
<!-- License: Apache. Made by Iconscout: https://github.com/Iconscout/unicons -->
<svg fill="white" width="40px" height="40px" viewBox="0 0 1.2 1.2" xmlns="http://www.w3.org/2000/svg" data-name="Layer 1"><path d="M1.1 0.29a0.425 0.425 0 0 1 -0.118 0.032 0.207 0.207 0 0 0 0.091 -0.114 0.411 0.411 0 0 1 -0.131 0.05 0.205 0.205 0 0 0 -0.35 0.187 0.582 0.582 0 0 1 -0.422 -0.215 0.208 0.208 0 0 0 -0.028 0.103 0.205 0.205 0 0 0 0.091 0.171 0.203 0.203 0 0 1 -0.093 -0.026v0.003a0.205 0.205 0 0 0 0.165 0.2 0.197 0.197 0 0 1 -0.055 0.009 0.245 0.245 0 0 1 -0.039 -0.004 0.206 0.206 0 0 0 0.192 0.142A0.411 0.411 0 0 1 0.15 0.917a0.397 0.397 0 0 1 -0.05 -0.003 0.579 0.579 0 0 0 0.315 0.093A0.58 0.58 0 0 0 1 0.422v-0.027a0.421 0.421 0 0 0 0.1 -0.106Z"/></svg>